<?xml version="1.0" encoding="utf-8"?>
<!-- Generator: Adobe Illustrator 22.1.0, SVG Export Plug-In . SVG Version: 6.00 Build 0)  -->
<svg version="1.1" id="logo_IDEM_colorato" xmlns="http://www.w3.org/2000/svg" xmlns:xlink="http://www.w3.org/1999/xlink" x="0px"
	 y="0px" viewBox="0 0 385 259.5" enable-background="new 0 0 385 259.5" xml:space="preserve">
<path fill="#26A33E" d="M76.1523,51.2119c2.0411,0,3.70119-1.6602,3.70119-3.7012c0-2.0405-1.6601-3.7007-3.70119-3.7007
	c-2.041,0-3.7011,1.6602-3.7011,3.7007C72.45119,49.5517,74.1113,51.2119,76.1523,51.2119z M94.957,51.665
	c2.04009,0,3.7002-1.66021,3.7002-3.70121c0-2.04049-1.6601-3.70069-3.7002-3.70069c-2.041,0-3.7011,1.6602-3.7011,3.70069
	C91.2559,50.0048,92.916,51.665,94.957,51.665z M100.6709,62.437c-1.4902-0.7237-3.2861-0.1021-4.0088,1.3882
	c-2.0918,4.3051-5.4639,6.3105-10.6142,6.3105c-5.3916,0-9.2061-2.168-10.4668-5.9487c-0.5235-1.5718-2.22269-2.4214-3.794-1.8975
	c-1.5723,0.5239-2.4219,2.2232-1.8975,3.7949c2.0977,6.294,8.1377,10.0513,16.1583,10.0513c7.5009,0,12.8886-3.2598,16.0107-9.6895
	C102.7832,64.956,102.16109,63.1601,100.6709,62.437z M133.832,59.0527c0-23.044-21.8623-41.792-48.73431-41.792
	c-26.8721,0-48.7344,18.748-48.7344,41.792c0,21.6611,19.3183,39.522,43.9551,41.5884c1.16109,2.4204,2.873,4.3349,4.28799,5.9155
	c4.7159,5.2651,13.3438,14.9136,2.42191,45.3926c-0.2246,0.1093-0.4502,0.2099-0.67091,0.334
	c-13.7988,7.7617-30.88079-4.6543-31.0498-4.7803c-5.5283-4.0869-13.34959-2.96291-17.4687,2.54201
	c-4.1182,5.5058-3.0479,13.28119,2.4336,17.43159c0.625,0.47369,8.5566,6.3526,19.9238,9.84079
	c-0.5791,2.52251-1.0283,4.96001-1.4219,7.10451c-0.8623,4.6973-1.5293,9.34959-1.9883,12.8985
	c-6.2197-2.15041-10.7226-5.41901-10.8105-5.4834c-5.5293-4.0869-13.3506-2.9639-17.4697,2.54199
	c-4.1182,5.50481-3.0479,13.28021,2.4336,17.43161c1.0498,0.79489,22.6748,16.82809,46.6337,11.168
	c0.6993,6.50969,1.5791,10.5508,1.6914,11.04979c1.3877,6.18651,7.5186,10.06931,13.709,8.6963
	c5.35941-1.1895,9.0088-5.9512,9.0088-11.22859c0-0.81641-0.0879-1.64641-0.2705-2.4765
	c-0.03709-0.17191-1.9844-9.332-1.9844-22.69731c0-11.9883,1.5664-27.3613,7.4834-42.66399
	c5.8448-15.1143,8.12111-27.26961,8.12111-37.2032c0-13.3115-4.0927-22.6215-9.1591-29.7251
	C122.52149,89.978,133.832,75.6269,133.832,59.0527z M85.09769,82.8442c-16.9473,0-30.7344-10.6729-30.7344-23.7915
	c0-13.1192,13.7871-23.792,30.7344-23.792c16.9472,0,30.73431,10.6728,30.73431,23.792
	C115.832,72.1713,102.04489,82.8442,85.09769,82.8442z"/>
<g>
	<path fill="#777676" d="M134.8848,99.4838c-0.3203-0.0463-0.64261-0.017-0.9541-0.017h-10.9346
		c-0.6924,0-1.1543,0.0615-1.1543,0.6748c0,0.8588,3.84959,10.9853,3.84959,26.6958c0,11.84419-4.08099,22.09219-4.08099,22.70549
		c0,1.166,1.9248,0.98241,2.9257,0.98241h4.2207v0.0127h9.6006V99.4838H134.8848z"/>
	<path fill="#777676" d="M198.5654,76.0937c0,0,0,11.4614,0,23.26369l-32.36621,0.147l-0.1308,0.0239
		c-3.6983,0.6782-6.9971,1.8896-9.8047,3.6011c-6.9151,4.4018-10.9278,10.9731-11.95119,19.5463
		c-0.3506,7.4165,1.88379,13.91021,6.63089,19.4082c4.414,4.79691,10.06441,7.60941,16.82811,8.39461l0.09079,0.0097
		l21.40041-0.14742l0.1348-0.0264c6.5351-1.2578,11.8457-4.1709,15.7851-8.65819c3.4151-4.207,5.4727-9.11331,6.15242-14.62691
		l0.01169-0.0914V76.0937H198.5654z M198.5654,126.1884c-1.2021,6.45799-4.9736,10.2276-11.5244,11.5186h-18.43941
		c-6.461-1.2012-10.23151-4.97661-11.5215-11.5361c-0.002-0.128-0.0049-0.2564-0.0049-0.3833c0-3.0811,0.7383-5.8443,2.1904-8.2247
		c2.1006-2.8667,4.75301-4.5927,8.09869-5.27879c0.37401-0.0014,31.11031-0.145,31.20111-0.1455V126.1884z"/>
	<g>
		<g>
			<g>
				<path fill="#777676" d="M284.34668,122.9077l-0.01169-0.0913c-0.67969-5.5118-2.7373-10.4175-6.11429-14.5816
					c-3.97751-4.53269-9.28812-7.4463-15.82321-8.70409l-0.1348-0.0259l-21.5547-0.1479l-0.1006,0.0127
					c-6.84959,0.8862-12.4453,3.6313-16.6299,8.15919c-4.7822,5.57171-7.01559,12.08051-6.6738,19.3867
					c1.0322,8.8833,5.4785,15.7388,13.2227,20.4809l0.0215,0.0137c2.5322,1.4902,5.96579,2.52251,10.20599,3.06641l0.0947,0.0117
					h43.49809V137.707c0,0-42.42679,0-42.75099,0c-0.2686-0.05859-2.30368-0.5078-2.56149-0.5645
					c-3.68851-1.5-6.2139-3.6718-7.62311-6.55861c1.0596,0,52.93559,0,52.93559,0V122.9077z M260.09079,112.1386
					c0.80499,0.10852,1.90155,0.30426,3.17596,0.79233c2.98639,1.14372,4.70941,3.01233,5.12485,3.52898
					c0.42288,0.52589,0.7529,0.9702,1.00589,1.34081h-37.04111c0.51495-0.7966,1.24417-1.73116,2.26321-2.62138
					c2.56644-2.24205,5.41879-2.84689,6.82669-3.04073C242.83405,112.0578,254.58002,111.39571,260.09079,112.1386z"/>
			</g>
		</g>
	</g>
	<path fill="#939393" d="M357.14359,122.9301c-0.9913-8.81831-5.43948-15.6777-13.22171-20.3872l-0.01559-0.0093
		c-2.53418-1.4917-5.98151-2.5395-10.24609-3.1137l-0.0997-0.01369h-43.5517v51.082h12.832c0,0,0-35.48241,0-38.25191h13.40039
		c0,2.7695,0,38.25191,0,38.25191h12.78131c0,0,0-35.38721,0-38.2163c1.7529,0.0406,4.74411,0.1104,4.74411,0.1104
		c0.1846,0.0005,1.10349,0.0908,4.40918,1.7324c3.47562,2.3272,5.50189,5.5278,6.19431,9.7778c0,0.3199,0,26.5957,0,26.5957h12.7832
		v-27.4746L357.14359,122.9301z"/>
	<g>
		<g>
			<g>
				<path fill="#777676" d="M143.0605,167.92479c-2.01901-2.30859-4.70311-3.76959-7.99261-4.3819l-0.0401-0.0078l-10.98039-0.1055
					l-0.0337,0.0049c-3.4175,0.4014-6.2862,1.81551-8.5166,4.209c-2.2544,2.6445-3.3867,5.70511-3.3848,9.1172
					c0,0.2256,0.0068,0.457,0.0171,0.68851c0.5034,4.35059,2.5371,7.69629,6.0303,9.9218
					c1.45261,0.88089,3.1137,1.48149,4.9775,1.81549l0.044,0.0058l16.91401,0.0782c-0.0298,0.37891-0.08011,0.73041-0.15041,1.0547
					c-0.7383,2.77921-2.4765,4.4619-5.4516,5.2207l-22.4414,0.07809v6.0625h22.2822c4.48729-0.5069,7.93849-2.7442,10.25729-6.60939
					c0.7695-1.3027,1.2749-3.02341,1.55571-5.16991l0.00439-0.0293V175.375
					C145.81349,172.5107,144.7822,170.0341,143.0605,167.92479z M133.9561,169.4951c0,0,3.64635,1.51807,4.21724,2.10638
					c1.40956,1.45259,1.80727,3.19199,1.93945,4.0498v7.55571l-16.4175-0.0762c-1.7764-0.3613-3.1982-1.289-4.3447-2.84671
					c-0.76761-1.24409-1.16411-2.69719-1.16411-4.373c0-0.07809,0.002-0.15919,0.0034-0.24509
					c0.07333-0.58514,0.39606-2.57632,2.11145-4.23422c1.59692-1.5434,3.42865-1.8584,4.03705-1.93668
					C128.77042,169.4534,133.9561,169.4951,133.9561,169.4951z"/>
			</g>
		</g>
	</g>
	<g>
		<path fill="#777676" d="M199.70119,163.3232c-2.15729,0.2773-3.89259,0.7861-5.21289,1.5625
			c-3.959,2.41209-6.2471,5.9346-6.76271,10.41701l0.4971,0.05859h-0.50099v14.04489h6.09959v-13.7139
			c-0.0127-0.21089,0.2187-1.09079,0.7139-2.37199c1.40131-2.37309,3.25682-3.62599,5.71681-3.9063l21.9296,0.0029v-6.0986h-22.4472
			L199.70119,163.3232z"/>
	</g>
	<g>
		<path fill="#777676" d="M237.78809,163.3183l-0.0352,0.00391c-2.15819,0.27829-3.89549,0.78619-5.2148,1.56349
			c-3.95999,2.41409-6.24608,5.93361-6.76079,10.41701l0.49809,0.05959h-0.502v14.04491h6.09961v-13.7149
			c-0.0126-0.2099,0.22079-1.08789,0.711-2.36809c1.4014-2.375,3.2598-3.6299,5.71869-3.9102l21.93269,0.00389v-6.09959H237.78809z"
			/>
	</g>
	<g>
		<g>
			<g>
				<rect x="351.52148" y="163.3203" fill="#777676" width="6.0996" height="26.0869"/>
			</g>
		</g>
	</g>
	<path fill="#777676" d="M183.79539,177.2421c0.01419-0.27631,0.03369-0.5546,0.03369-0.8261
		c0.00441-3.2305-1.03519-6.1153-3.0869-8.5791l-0.3833,0.31931l0.3623-0.34181c-2.4678-2.63179-5.437-4.14549-8.83499-4.49319
		l-21.6313-0.00389V166.5v2.91299l21.7666,0.08011c2.47119,0.64549,4.08929,1.9082,5.0049,3.8721h-27.2041l-0.06841,0.4189
		c-0.1655,1.002-0.2466,1.95219-0.2466,2.8555c0,1.2939,0.17191,2.48439,0.51759,3.5674
		c1.936,5.3418,5.83112,8.4668,11.44431,9.1953l0.03709,0.00591h21.53421v-0.00101h0.7549V177.2421z M161.35059,183.23239
		c0,0-2.79044-0.83711-4.16116-2.49815c-0.40854-0.49507-0.66992-0.95995-0.82513-1.27045h21.38672c0,1.27574,0,2.55147,0,3.82721
		C169.46872,183.207,161.35059,183.23239,161.35059,183.23239z"/>
	<path fill="#777676" d="M310.6611,176.56149c0-0.04689,0.00589-0.0947,0.00589-0.1416c0-0.04979-0.00589-0.09869-0.00589-0.1485
		v-0.1337h-0.00482c-0.0567-3.1163-1.08398-5.90919-3.0762-8.3018l-0.38278,0.3213v-0.00099l0.3613-0.3437
		c-2.4668-2.62801-5.43561-4.14461-8.83401-4.49319l-21.63278-0.002v3.18359v2.91209l21.76758,0.0811
		c2.47171,0.6445,4.08881,1.90721,5.00391,3.8721h-27.2012l-0.06927,0.41701c-0.16901,1.0009-0.25,1.95409-0.25,2.85739
		c0,1.29291,0.17279,2.48241,0.5195,3.5674c1.93558,5.3398,5.83197,8.4668,11.44528,9.19431l0.03522,0.0049h21.53421v-0.0264
		h0.78409V176.56149z M304.61719,179.4628c0,1.27606,0,2.55212,0,3.8282l-16.43069-0.05861
		c-0.91037-0.21574-2.7717-0.80489-4.1622-2.50005c-0.35471-0.43242-0.62164-0.86716-0.8241-1.26955
		C290.00845,179.39186,297.80893,179.53372,304.61719,179.4628"/>
	<path fill="#777676" d="M348.7012,176.81729c0.00388-0.13379,0.01657-0.27139,0.01657-0.4043
		c0.00391-3.2285-1.03519-6.1142-3.08499-8.5771l-0.3848,0.32031l0.36429-0.3428c-2.46869-2.6299-5.43848-4.14551-8.83688-4.4931
		l-21.63181-0.002v3.18069v2.91501l21.76849,0.08009c2.4707,0.64551,4.08893,1.90721,5.00293,3.8721h-27.20312l-0.06931,0.41701
		c-0.1651,1.00189-0.24509,1.95499-0.24509,2.8564c-0.00201,1.293,0.16989,2.4834,0.51752,3.56839
		c1.93167,5.3398,5.83209,8.46581,11.44537,9.1953l0.0361,0.00391h21.5332v-0.041h0.77151V176.81729z M342.6572,179.46379
		c0,1.27574,0,2.55147,0,3.82721l-16.41891-0.05861c-0.90848-0.21475-2.77078-0.80255-4.16071-2.49808
		c-0.3548-0.43279-0.62155-0.86792-0.8237-1.27052C327.80112,179.40645,336.10995,179.52113,342.6572,179.46379"/>
</g>
<g>
</g>
<g>
</g>
<g>
</g>
<g>
</g>
<g>
</g>
<g>
</g>
<g>
</g>
<g>
</g>
<g>
</g>
<g>
</g>
<g>
</g>
<g>
</g>
</svg>
