<svg xmlns="http://www.w3.org/2000/svg" xmlns:xlink="http://www.w3.org/1999/xlink" width="20" height="20" viewBox="0 0 20 20"><defs><style>.a,.c{fill:#a65255;}.a{stroke:#707070;}.b{clip-path:url(#a);}</style><clipPath id="a"><rect class="a" width="20" height="20" transform="translate(947 187)"/></clipPath></defs><g class="b" transform="translate(-947 -187)"><g transform="translate(947 187)"><path class="c" d="M2.667,8.844H4.709v5.11H2.667Z"/><path class="c" d="M6.875,8.844H8.917v5.11H6.875Z"/><path class="c" d="M11.083,8.844h2.042v5.11H11.083Z"/><path class="c" d="M15.291,8.844h2.042v5.11H15.291Z"/><path class="c" d="M10,1.93a2.4,2.4,0,0,1,2.4,2.561h4.9L10.205.143a.392.392,0,0,0-.41,0L2.7,4.491H7.6A2.4,2.4,0,0,1,10,1.93Z"/><path class="c" d="M18.791,7.471v-1.8h-6.8a2.4,2.4,0,0,1-3.986,0h-6.8v1.8a.2.2,0,0,0,.2.2H18.6A.2.2,0,0,0,18.791,7.471Z"/><path class="c" d="M18.4,15.13H1.6a.392.392,0,0,0-.392.392v1.393H18.791V15.523A.392.392,0,0,0,18.4,15.13Z"/><path class="c" d="M0,18.484v1.039a.392.392,0,0,0,.392.392H19.608A.392.392,0,0,0,20,19.523V18.484a.392.392,0,0,0-.392-.392H.392A.392.392,0,0,0,0,18.484Z"/><path class="c" d="M8.776,4.33A1.224,1.224,0,1,0,10,3.106,1.226,1.226,0,0,0,8.776,4.33Z"/></g></g></svg>