<svg xmlns="http://www.w3.org/2000/svg" xmlns:xlink="http://www.w3.org/1999/xlink" width="68" height="68" viewBox="0 0 68 68"><defs><style>.a,.c{fill:#a65255;}.a{stroke:#707070;}.b{clip-path:url(#a);}</style><clipPath id="a"><rect class="a" width="68" height="68" transform="translate(947 72)"/></clipPath></defs><g class="b" transform="translate(-947 -72)"><g transform="translate(947 72.001)"><path class="c" d="M18.133,8.333V3.8A1.133,1.133,0,0,0,17,2.667H1.133A1.133,1.133,0,0,0,0,3.8V8.333Zm0,0" transform="translate(0 6.4)"/><path class="c" d="M0,5V42.4H18.133V5ZM13.6,19.733H4.533A1.133,1.133,0,0,1,3.4,18.6V9.533A1.133,1.133,0,0,1,4.533,8.4H13.6a1.133,1.133,0,0,1,1.133,1.133V18.6A1.133,1.133,0,0,1,13.6,19.733Zm0,0" transform="translate(0 12)"/><path class="c" d="M0,18v5.667A1.133,1.133,0,0,0,1.133,24.8H17a1.133,1.133,0,0,0,1.133-1.133V18Zm0,0" transform="translate(0 43.199)"/><path class="c" d="M0,16.666H18.133v2.267H0Zm0,0" transform="translate(0 39.999)"/><path class="c" d="M6,16.666H20.733v2.267H6Zm0,0" transform="translate(14.4 39.999)"/><path class="c" d="M20.733,4.533v-3.4A1.133,1.133,0,0,0,19.6,0H7.133A1.133,1.133,0,0,0,6,1.133v3.4Zm0,0" transform="translate(14.4 0)"/><path class="c" d="M6,3.667H20.733V45.6H6Zm0,0" transform="translate(14.4 8.8)"/><path class="c" d="M6,18v5.667A1.133,1.133,0,0,0,7.133,24.8H19.6a1.133,1.133,0,0,0,1.133-1.133V18Zm0,0" transform="translate(14.4 43.199)"/><path class="c" d="M6,2H20.733V5.4H6ZM6,2" transform="translate(14.4 4.8)"/><path class="c" d="M10.992,10.515l.606,2.328L30.791,7.725,30.184,5.4Zm0,0" transform="translate(26.38 12.953)"/><path class="c" d="M14.636,24.482l19.193-5.118-1.215-4.659L13.42,19.823Zm0,0" transform="translate(32.207 35.292)"/><path class="c" d="M37.036,31.66l-6.5-24.933L11.338,11.845l6.5,24.933Zm0,0" transform="translate(27.212 16.144)"/><path class="c" d="M12,14.876,31.194,9.758,29.567,3.516A1.159,1.159,0,0,0,28.173,2.7l-17,4.533a1.142,1.142,0,0,0-.805,1.382Zm0,0" transform="translate(24.798 6.4)"/><path class="c" d="M33.139,16.72,13.945,21.839,15.3,27.02a1.137,1.137,0,0,0,.533.692,1.094,1.094,0,0,0,.567.158,1.317,1.317,0,0,0,.294-.034l17-4.533A1.142,1.142,0,0,0,34.5,21.92Zm0,0" transform="translate(33.469 40.128)"/></g></g></svg>