<?xml version="1.0" encoding="UTF-8" standalone="no"?>
<svg
   xmlns:dc="http://purl.org/dc/elements/1.1/"
   xmlns:cc="http://creativecommons.org/ns#"
   xmlns:rdf="http://www.w3.org/1999/02/22-rdf-syntax-ns#"
   xmlns:svg="http://www.w3.org/2000/svg"
   xmlns="http://www.w3.org/2000/svg"
   xmlns:sodipodi="http://sodipodi.sourceforge.net/DTD/sodipodi-0.dtd"
   xmlns:inkscape="http://www.inkscape.org/namespaces/inkscape"
   aria-hidden="true"
   focusable="false"
   data-prefix="fas"
   data-icon="torii-gate"
   class="svg-inline--fa fa-torii-gate fa-w-16"
   role="img"
   viewBox="0 0 68 68"
   version="1.1"
   id="svg4"
   sodipodi:docname="projects.svg"
   width="68"
   height="68"
   inkscape:version="0.92.3 (2405546, 2018-03-11)">
  <metadata
     id="metadata10">
    <rdf:RDF>
      <cc:Work
         rdf:about="">
        <dc:format>image/svg+xml</dc:format>
        <dc:type
           rdf:resource="http://purl.org/dc/dcmitype/StillImage" />
        <dc:title></dc:title>
      </cc:Work>
    </rdf:RDF>
  </metadata>
  <defs
     id="defs8" />
  <sodipodi:namedview
     pagecolor="#ffffff"
     bordercolor="#666666"
     borderopacity="1"
     objecttolerance="10"
     gridtolerance="10"
     guidetolerance="10"
     inkscape:pageopacity="0"
     inkscape:pageshadow="2"
     inkscape:window-width="1920"
     inkscape:window-height="1013"
     id="namedview6"
     showgrid="false"
     inkscape:zoom="0.4609375"
     inkscape:cx="-276.61017"
     inkscape:cy="256"
     inkscape:window-x="0"
     inkscape:window-y="0"
     inkscape:window-maximized="1"
     inkscape:current-layer="svg4" />
  <path
     d="M 49.997266,4.25 H 18.002734 A 40.264766,40.264766 0 0 1 0,0 V 12.75 C 0,15.0968 1.9032031,17 4.25,17 H 8.5 v 8.5 H 2.125 C 0.9509375,25.5 0,26.45094 0,27.625 v 4.25 C 0,33.04906 0.9509375,34 2.125,34 H 8.5 V 65.875 C 8.5,67.04906 9.4509375,68 10.625,68 h 4.25 C 16.049063,68 17,67.04906 17,65.875 V 34 H 51 V 65.875 C 51,67.04906 51.950938,68 53.125,68 h 4.25 C 58.549062,68 59.5,67.04906 59.5,65.875 V 34 h 6.375 C 67.049062,34 68,33.04906 68,31.875 v -4.25 C 68,26.45094 67.049062,25.5 65.875,25.5 H 59.5 V 17 h 4.25 C 66.096797,17 68,15.0968 68,12.75 V 0 A 40.264766,40.264766 0 0 1 49.997266,4.25 Z M 17,17 h 12.75 v 8.5 H 17 Z m 34,8.5 H 38.25 V 17 H 51 Z"
     id="path2"
     inkscape:connector-curvature="0"
     style="fill:currentColor;stroke-width:0.1328125" />
</svg>
